<?xml version="1.0" standalone="no"?>
<!DOCTYPE svg PUBLIC "-//W3C//DTD SVG 20010904//EN"
 "http://www.w3.org/TR/2001/REC-SVG-20010904/DTD/svg10.dtd">
<svg version="1.0" xmlns="http://www.w3.org/2000/svg"
 width="512.000000pt" height="512.000000pt" viewBox="0 0 512.000000 512.000000"
 preserveAspectRatio="xMidYMid meet">
<metadata>
Created by potrace 1.11, written by Peter Selinger 2001-2013
</metadata>
<g transform="translate(0.000000,512.000000) scale(0.100000,-0.100000)"
fill="#000000" stroke="none">
<path d="M2451 4492 c-27 -21 -31 -74 -9 -100 13 -14 14 -38 7 -157 -4 -77 -8
-149 -8 -161 -1 -15 -15 -26 -58 -43 -144 -58 -285 -172 -370 -297 -81 -120
-152 -288 -183 -437 -11 -55 -11 -59 19 -110 l31 -54 -88 -59 c-178 -120 -367
-342 -457 -536 -88 -192 -125 -361 -125 -578 0 -165 19 -286 66 -427 156 -467
535 -801 1025 -904 211 -44 485 -25 699 48 349 120 658 402 798 728 86 203
115 341 116 560 1 347 -127 665 -370 924 -46 49 -84 92 -84 95 0 3 14 25 30
48 30 40 30 43 30 169 0 403 -173 687 -500 820 -79 32 -245 69 -309 69 -40 0
-41 1 -41 33 0 17 9 47 20 65 24 39 25 70 5 99 -20 29 -59 37 -95 18 -38 -20
-49 -59 -27 -98 10 -16 17 -50 17 -77 0 -46 -1 -48 -32 -53 -18 -2 -34 -4 -34
-3 -1 0 2 68 7 150 6 118 11 152 25 167 23 25 22 73 -1 99 -23 25 -75 26 -104
2z m454 -517 c209 -61 365 -185 454 -362 46 -92 73 -212 78 -350 l6 -133 -28
0 c-39 0 -1499 151 -1504 156 -10 10 66 220 112 308 59 113 161 230 255 293
73 48 211 100 299 112 104 15 226 6 328 -24z m-205 -855 c376 -39 688 -70 692
-70 5 0 -7 -22 -24 -50 -21 -32 -40 -50 -53 -50 -25 0 -1273 139 -1300 145
-16 4 -54 55 -73 98 -2 4 13 5 35 2 21 -3 346 -37 723 -75z m-365 -143 l110
-12 6 -90 c3 -50 5 -91 5 -92 -1 0 -70 -4 -155 -8 l-154 -8 6 48 c4 26 7 78 7
116 l0 68 33 -5 c17 -3 82 -11 142 -17z m-548 -134 c-14 -298 -131 -551 -328
-709 -60 -48 -148 -104 -162 -104 -21 0 14 213 53 330 70 209 211 421 368 556
35 30 66 54 69 54 3 0 3 -57 0 -127z m1272 53 c188 -22 206 -26 223 -48 61
-77 186 -276 225 -358 25 -52 49 -102 53 -110 20 -42 75 -14 66 34 -11 53 -82
188 -170 320 -82 124 -85 131 -71 153 21 31 36 22 117 -69 200 -226 306 -471
333 -772 l8 -79 -89 8 c-191 15 -412 92 -547 189 -207 147 -351 409 -374 681
-5 61 -3 75 8 75 8 0 106 -11 218 -24z m-579 -258 c36 -177 122 -377 221 -518
67 -95 184 -211 276 -274 62 -42 70 -51 60 -66 -7 -9 -41 -53 -76 -98 l-63
-81 -37 16 c-71 31 -197 71 -281 89 -64 14 -131 18 -270 18 -210 1 -294 -12
-473 -71 -59 -20 -109 -34 -111 -32 -2 2 -24 50 -49 106 l-45 102 46 38 c227
185 395 467 452 760 l12 62 87 4 c47 1 120 4 162 5 l76 2 13 -62z m-871 -952
c22 -52 41 -98 41 -104 0 -5 -18 -17 -41 -27 -23 -11 -79 -45 -125 -76 l-83
-57 -25 67 c-14 36 -32 88 -40 114 l-14 48 86 44 c48 24 101 53 117 64 17 12
33 21 36 21 3 0 25 -42 48 -94z m1624 18 c123 -52 293 -98 424 -115 133 -17
127 -9 83 -116 -44 -107 -92 -189 -171 -293 -57 -75 -126 -147 -132 -139 -2 2
-20 36 -41 74 -77 143 -230 313 -364 404 -55 37 -61 44 -50 60 42 57 133 171
137 171 3 0 54 -21 114 -46z m-758 -347 c157 -44 306 -136 441 -272 93 -95
211 -255 200 -273 -8 -13 -156 -66 -253 -91 -342 -87 -732 -16 -1023 187 -70
48 -230 188 -230 200 0 10 122 91 200 135 92 51 236 105 327 122 91 17 262 13
338 -8z"/>
<path d="M2677 3920 c-65 -17 -133 -58 -175 -106 -143 -161 -91 -414 104 -514
42 -22 62 -25 144 -25 83 0 101 4 145 27 65 34 128 100 157 163 34 74 32 190
-3 265 -37 78 -81 125 -152 160 -69 33 -157 45 -220 30z"/>
<path d="M2189 3547 c-43 -33 -49 -84 -15 -123 28 -34 84 -38 115 -10 56 51
21 145 -54 145 -16 0 -37 -5 -46 -12z"/>
<path d="M3584 2285 c-7 -18 4 -103 17 -127 13 -25 56 -23 64 2 8 24 -4 111
-17 128 -14 17 -57 15 -64 -3z"/>
<path d="M2195 2115 c-14 -13 -25 -31 -25 -40 0 -9 11 -27 25 -40 31 -32 50
-31 81 0 29 29 26 58 -8 88 -27 23 -44 22 -73 -8z"/>
<path d="M3285 1545 c-30 -29 -31 -45 -7 -75 20 -25 63 -30 87 -10 23 19 19
76 -7 94 -31 22 -45 20 -73 -9z"/>
<path d="M1857 1093 c-4 -3 -7 -17 -7 -30 0 -49 239 -175 436 -230 91 -26 113
-28 279 -28 143 0 193 4 245 19 73 20 90 31 90 56 0 36 -26 44 -89 27 -226
-63 -472 -34 -718 83 -56 26 -122 62 -147 79 -43 30 -75 39 -89 24z"/>
</g>
</svg>
